# xmcd
#
# Track frame offsets:
#	150
#	14716
#	33138
#	45394
#	65599
#	82522
#	97161
#	105266
#	127551
#	167169
#
# Disc length: 2919 seconds
#
# Revision: 1
# Processed by: cddbd v1.5.1PL0 Copyright (c) Steve Scherf et al.
# Submitted via: audiograbber 1.83.01
#
DISCID=6a0b650a
DTITLE=Clannad - Ring Of Gold
DYEAR=1979
DGENRE=Country
TTITLE0=An Gabhar Ban
TTITLE1=Mrs. McDermott
TTITLE2=Rince Philib A'Cheoil
TTITLE3=Down by the Sally Gardens
TTITLE4=Teidhir Abhaile Riu
TTITLE5=Eleanor Plunkett
TTITLE6=D Tigeas A'Damhsa
TTITLE7=Eirigh is Cuir Ort
TTITLE8=Do Chuid Eadaigh
TTITLE9=Nil Se'n La
EXTD=
EXTT0=
EXTT1=
EXTT2=
EXTT3=
EXTT4=
EXTT5=
EXTT6=
EXTT7=
EXTT8=
EXTT9=
PLAYORDER=
